<?xml version="1.0" encoding="UTF-8"?>
<svg id="Layer_2" data-name="Layer 2" xmlns="http://www.w3.org/2000/svg" viewBox="0 0 74.05 74.05">
  <defs>
    <style>
      .cls-1 {
        fill="currentColor"
      }
    </style>
  </defs>
  <g id="Layer_1-2" data-name="Layer 1">
    <g>
      <path class="cls-1" d="M22.69,49.62l5.94-5.61c1.62,1.95,3.14,3.09,5.18,3.09,2.33,0,3.8-1.57,3.8-4.66v-21.06h9.18v21.11c0,4.18-1.05,7.13-3.28,9.37-2.19,2.19-5.33,3.38-9.13,3.38-5.8,0-9.37-2.43-11.7-5.61Z"/>
      <polygon class="cls-1" points="67.05 67.05 7 67.05 7 7 67.05 7 67.05 21.38 74.05 21.38 74.05 0 0 0 0 74.05 74.05 74.05 74.05 29.46 67.05 29.46 67.05 67.05"/>
    </g>
  </g>
</svg>