<?xml version="1.0" encoding="UTF-8"?>
<svg id="Layer_2" data-name="Layer 2" xmlns="http://www.w3.org/2000/svg" viewBox="0 0 220.58 34.62">
  <defs>
    <style>
      .cls-1 {
        fill="currentColor"
      }
    </style>
  </defs>
  <g id="Layer_1-2" data-name="Layer 1">
    <g>
      <path class="cls-1" d="M0,28.91l5.94-5.61c1.62,1.95,3.14,3.09,5.18,3.09,2.33,0,3.8-1.57,3.8-4.66V.67h9.18v21.11c0,4.18-1.05,7.13-3.28,9.37s-5.33,3.38-9.13,3.38c-5.8,0-9.37-2.43-11.7-5.61Z"/>
      <path class="cls-1" d="M41.37,17.4v-.1C41.37,7.75,49.08,0,59.35,0s17.88,7.66,17.88,17.21v.09c0,9.56-7.7,17.31-17.97,17.31s-17.88-7.66-17.88-17.21ZM67.81,17.4v-.1c0-4.8-3.47-8.99-8.56-8.99s-8.41,4.09-8.41,8.89v.09c0,4.8,3.47,8.99,8.51,8.99s8.46-4.09,8.46-8.89Z"/>
      <path class="cls-1" d="M94.04.67h9.27v33.28h-9.27V.67Z"/>
      <path class="cls-1" d="M124.57.67h8.61l13.7,17.59V.67h9.13v33.28h-8.08l-14.22-18.26v18.26h-9.13V.67Z"/>
      <path class="cls-1" d="M181.24,8.75h-9.98V.67h29.2v8.08h-9.99v25.2h-9.22V8.75Z"/>
      <path class="cls-1" d="M212.53.67h8.05v8.08h-8.05V.67Z"/>
    </g>
  </g>
</svg>